<?xml version="1.0" encoding="UTF-8" standalone="no"?>
<svg width="300" height="600" viewBox="0 0 300 600" xmlns="http://www.w3.org/2000/svg">
  <!-- Phone Frame -->
  <rect x="10" y="10" width="280" height="580" rx="20" fill="#f8f9fa" stroke="#dee2e6" stroke-width="2"/>
  
  <!-- Header -->
  <rect x="20" y="20" width="260" height="60" rx="10" fill="#1e40af"/>
  <text x="35" y="55" fill="white" font-family="Arial" font-size="18">Análises</text>
  
  <!-- Pie Chart -->
  <circle cx="150" cy="150" r="60" fill="none" stroke="#3b82f6" stroke-width="30" stroke-dasharray="360 360"/>
  <circle cx="150" cy="150" r="60" fill="none" stroke="#22c55e" stroke-width="30" stroke-dasharray="90 360" transform="rotate(-90 150 150)"/>
  
  <!-- Bar Chart -->
  <rect x="20" y="250" width="260" height="160" rx="10" fill="white" stroke="#e5e7eb"/>
  <rect x="40" y="330" width="30" height="60" fill="#1e40af"/>
  <rect x="80" y="300" width="30" height="90" fill="#1e40af"/>
  <rect x="120" y="280" width="30" height="110" fill="#1e40af"/>
  <rect x="160" y="310" width="30" height="80" fill="#1e40af"/>
  <rect x="200" y="270" width="30" height="120" fill="#1e40af"/>
  <rect x="240" y="290" width="30" height="100" fill="#1e40af"/>
  
  <!-- Stats -->
  <rect x="20" y="420" width="125" height="60" rx="10" fill="#3b82f6"/>
  <rect x="155" y="420" width="125" height="60" rx="10" fill="#22c55e"/>
  
  <!-- Bottom Nav -->
  <rect x="10" y="560" width="280" height="30" rx="5" fill="white" stroke="#e5e7eb"/>
</svg>
